<svg id="svg" version="1.1" xmlns="http://www.w3.org/2000/svg" xmlns:xlink="http://www.w3.org/1999/xlink" width="400" height="70" viewBox="0, 0, 400,70"><g id="svgg"><path id="path0" d="M22.333 7.329 C 21.018 7.469,19.073 8.110,17.833 8.812 C 17.329 9.097,16.767 9.400,16.583 9.483 C 14.965 10.223,10.704 15.305,10.659 16.548 C 10.655 16.659,10.541 17.050,10.405 17.417 C 8.165 23.468,11.491 31.988,17.230 34.899 C 17.934 35.257,18.550 35.613,18.598 35.691 C 18.647 35.769,18.851 35.837,19.052 35.841 C 19.252 35.845,19.717 35.964,20.083 36.106 C 21.320 36.584,23.952 36.817,28.250 36.828 C 31.918 36.837,33.106 36.942,32.829 37.230 C 32.785 37.275,27.067 43.007,20.122 49.967 C 10.790 59.319,7.521 62.693,7.598 62.895 C 7.746 63.281,48.816 63.305,52.167 62.920 C 56.339 62.442,58.558 61.422,61.246 58.750 C 62.850 57.155,64.994 53.784,65.002 52.844 C 65.004 52.701,65.125 52.246,65.271 51.833 C 66.435 48.555,65.029 42.200,62.453 39.097 C 60.695 36.979,57.055 34.336,55.891 34.332 C 55.722 34.332,55.377 34.224,55.125 34.092 C 54.207 33.613,51.107 33.333,46.725 33.333 C 44.358 33.333,42.478 33.267,42.425 33.181 C 42.373 33.097,48.041 27.326,55.021 20.358 C 64.062 11.329,67.681 7.612,67.610 7.427 C 67.504 7.151,24.879 7.059,22.333 7.329 M111.339 7.489 C 110.982 8.156,111.112 62.566,111.471 62.891 C 111.966 63.338,131.652 63.310,132.058 62.862 C 132.391 62.493,132.493 8.109,132.161 7.489 C 131.890 6.984,111.610 6.984,111.339 7.489 M200.583 7.329 C 196.288 7.686,190.788 9.655,187.917 11.864 C 185.997 13.341,183.445 15.595,182.868 16.324 C 182.537 16.742,182.187 17.158,182.090 17.250 C 180.725 18.531,178.233 22.687,177.292 25.250 C 176.540 27.298,176.156 28.596,176.058 29.417 C 176.015 29.783,175.871 30.843,175.740 31.771 C 175.466 33.700,175.423 37.320,175.661 38.373 C 175.749 38.764,175.895 39.571,175.984 40.167 C 176.181 41.473,176.556 43.010,176.899 43.917 C 177.038 44.283,177.155 44.680,177.159 44.799 C 177.166 44.996,177.775 46.407,178.468 47.828 C 179.642 50.237,185.235 57.000,186.053 57.000 C 186.142 57.000,186.597 57.324,187.065 57.719 C 190.267 60.423,196.006 62.616,200.667 62.916 C 203.711 63.112,208.695 62.871,209.056 62.511 C 209.153 62.413,209.420 62.333,209.648 62.333 C 210.170 62.333,212.530 61.685,212.742 61.484 C 212.829 61.401,213.035 61.333,213.199 61.333 C 213.681 61.333,217.299 59.488,219.024 58.363 C 221.667 56.640,226.667 51.663,226.667 50.756 C 226.667 50.699,226.808 50.450,226.980 50.202 C 227.728 49.122,228.333 48.139,228.333 48.003 C 228.333 47.923,228.662 47.158,229.063 46.303 C 230.394 43.472,231.320 39.380,231.328 36.292 L 231.333 34.500 221.673 34.500 C 210.511 34.500,211.667 34.271,211.667 36.483 C 211.667 38.298,211.033 38.167,219.813 38.167 C 224.035 38.167,227.354 38.232,227.406 38.316 C 227.739 38.855,226.711 42.883,225.596 45.403 C 224.177 48.612,220.759 52.752,217.917 54.704 C 217.367 55.082,216.579 55.626,216.167 55.914 C 215.148 56.624,212.605 57.835,211.584 58.095 C 211.125 58.213,210.147 58.493,209.411 58.718 C 208.639 58.953,207.509 59.153,206.744 59.188 L 205.417 59.250 205.417 35.167 L 205.417 11.083 206.833 11.135 C 208.926 11.212,211.954 12.086,214.521 13.354 C 220.155 16.136,225.217 22.164,226.664 27.816 C 226.867 28.608,227.044 28.673,228.833 28.626 L 230.417 28.583 230.378 27.917 C 230.356 27.550,230.272 27.100,230.192 26.917 C 230.111 26.733,229.881 26.042,229.681 25.380 C 229.133 23.567,227.136 19.768,226.299 18.947 C 226.129 18.781,225.795 18.331,225.556 17.947 C 224.186 15.745,219.026 11.572,215.750 10.017 C 213.375 8.889,212.543 8.553,211.583 8.337 C 211.125 8.233,210.300 8.039,209.750 7.904 C 207.464 7.346,203.428 7.092,200.583 7.329 M274.595 7.429 C 274.194 7.829,274.194 62.504,274.595 62.905 C 275.046 63.355,295.085 63.297,295.327 62.844 C 295.593 62.348,295.566 7.633,295.300 7.367 C 294.957 7.024,274.940 7.084,274.595 7.429 M338.867 7.367 C 338.576 7.658,338.576 62.676,338.867 62.967 C 338.987 63.087,339.572 63.167,340.341 63.167 C 342.329 63.167,342.167 63.953,342.167 54.312 C 342.167 48.121,342.217 46.017,342.367 45.867 C 342.520 45.714,346.418 45.667,358.899 45.667 C 379.319 45.667,379.685 45.636,383.913 43.535 C 386.937 42.033,390.495 38.650,391.922 35.919 C 392.162 35.459,392.507 34.831,392.687 34.522 C 392.868 34.213,393.166 33.463,393.350 32.855 C 393.533 32.247,393.759 31.525,393.851 31.250 C 394.720 28.645,394.427 22.866,393.268 19.750 C 392.049 16.474,388.413 11.829,386.156 10.664 C 385.829 10.496,385.469 10.247,385.357 10.112 C 385.177 9.895,384.467 9.526,382.750 8.758 C 381.400 8.154,379.900 7.741,377.597 7.339 C 376.093 7.076,339.131 7.103,338.867 7.367 M34.333 10.938 C 34.333 11.306,16.253 29.406,16.026 29.266 C 15.740 29.089,14.333 26.923,14.332 26.658 C 14.332 26.525,14.224 26.211,14.093 25.960 C 13.439 24.706,13.112 25.124,20.664 17.576 L 27.578 10.667 30.955 10.667 C 33.966 10.667,34.333 10.696,34.333 10.938 M46.833 10.870 C 46.833 10.981,41.866 16.044,35.795 22.120 L 24.756 33.167 23.836 33.161 C 22.203 33.150,19.472 32.267,19.245 31.677 C 19.182 31.513,22.571 28.012,29.534 21.050 L 39.916 10.667 43.374 10.667 C 45.982 10.667,46.833 10.717,46.833 10.870 M59.077 10.823 C 59.130 10.909,54.128 16.007,47.962 22.154 L 36.750 33.328 33.514 33.289 C 31.539 33.265,30.256 33.185,30.223 33.083 C 30.194 32.992,35.146 27.910,41.228 21.792 L 52.287 10.667 55.633 10.667 C 57.534 10.667,59.022 10.734,59.077 10.823 M120.133 10.906 C 120.381 11.037,122.383 12.950,124.583 15.157 L 128.583 19.169 128.635 22.501 C 128.683 25.642,128.669 25.833,128.380 25.833 C 128.199 25.833,125.369 23.123,121.454 19.199 C 114.231 11.962,114.223 11.951,115.109 10.971 C 115.474 10.568,119.401 10.517,120.133 10.906 M128.362 10.942 C 128.805 11.344,128.813 13.500,128.371 13.500 C 127.929 13.500,125.763 11.257,125.888 10.931 C 126.034 10.550,127.938 10.559,128.362 10.942 M287.583 14.999 L 291.833 19.248 291.833 22.437 C 291.833 24.808,291.779 25.671,291.622 25.801 C 291.189 26.160,277.999 12.705,278.003 11.907 C 278.007 10.710,278.106 10.671,281.041 10.715 L 283.332 10.750 287.583 14.999 M291.661 10.989 C 291.893 11.423,291.883 13.450,291.648 13.595 C 291.367 13.768,288.927 11.264,289.054 10.933 C 289.218 10.504,291.427 10.552,291.661 10.989 M377.218 10.974 C 379.252 11.208,381.824 12.077,383.197 12.994 C 383.751 13.364,384.267 13.667,384.344 13.667 C 384.421 13.667,384.543 13.761,384.617 13.877 C 384.690 13.993,385.148 14.416,385.635 14.818 C 386.130 15.226,386.456 15.611,386.376 15.691 C 386.296 15.770,376.396 15.816,364.241 15.792 L 342.250 15.750 342.203 13.519 C 342.163 11.613,342.198 11.242,342.439 10.975 C 342.777 10.602,373.975 10.600,377.218 10.974 M201.749 11.375 C 201.989 12.391,201.743 59.017,201.496 59.170 C 201.090 59.424,197.068 58.790,196.691 58.413 C 196.560 58.282,196.449 12.960,196.579 12.239 C 196.666 11.750,196.727 11.717,198.043 11.432 C 198.799 11.269,199.492 11.111,199.583 11.081 C 200.324 10.839,201.665 11.021,201.749 11.375 M21.500 11.443 C 21.500 11.602,14.125 19.000,13.966 19.000 C 13.785 19.000,13.799 18.559,13.992 18.206 C 14.079 18.047,14.283 17.617,14.444 17.250 C 15.500 14.856,18.031 12.447,20.298 11.679 C 21.378 11.314,21.500 11.290,21.500 11.443 M192.833 35.056 C 192.833 56.913,192.827 57.187,192.347 56.774 C 192.202 56.649,191.596 56.296,191.000 55.990 C 189.848 55.397,189.842 55.393,188.625 54.321 L 187.833 53.624 187.833 35.062 L 187.833 16.500 188.846 15.708 C 189.754 14.999,192.390 13.389,192.708 13.349 C 192.777 13.340,192.833 23.108,192.833 35.056 M285.032 24.750 L 291.750 31.417 291.801 34.680 C 291.842 37.279,291.806 37.982,291.625 38.132 C 291.444 38.282,290.038 36.959,284.699 31.614 L 278.000 24.907 278.000 21.565 C 278.000 18.672,278.062 17.856,278.269 18.042 C 278.294 18.065,281.338 21.083,285.032 24.750 M115.316 18.319 C 115.880 18.676,128.386 31.290,128.518 31.636 C 128.762 32.270,128.708 38.333,128.459 38.333 C 128.345 38.333,125.232 35.315,121.542 31.626 L 114.833 24.918 114.833 21.542 C 114.833 19.686,114.890 18.168,114.958 18.169 C 115.027 18.171,115.188 18.238,115.316 18.319 M389.656 20.542 C 390.282 21.872,390.536 22.906,390.470 23.841 L 390.417 24.583 366.518 24.626 C 348.994 24.657,342.559 24.618,342.393 24.480 C 342.081 24.221,342.064 19.736,342.375 19.610 C 342.490 19.564,353.065 19.520,365.875 19.513 L 389.167 19.500 389.656 20.542 M184.167 35.202 L 184.167 49.570 183.500 48.833 C 183.133 48.428,182.833 48.037,182.833 47.963 C 182.833 47.890,182.571 47.456,182.250 47.000 C 181.929 46.544,181.667 46.091,181.667 45.995 C 181.667 45.830,180.835 43.908,180.506 43.312 C 180.424 43.163,180.307 42.751,180.247 42.396 C 180.186 42.040,180.039 41.450,179.920 41.083 C 178.929 38.042,178.929 32.147,179.921 29.083 C 180.040 28.717,180.186 28.126,180.247 27.771 C 180.307 27.416,180.421 27.004,180.501 26.854 C 180.801 26.294,181.833 24.022,181.833 23.922 C 181.833 23.593,183.855 20.873,184.125 20.839 C 184.148 20.836,184.167 27.299,184.167 35.202 M390.555 28.403 C 390.667 28.694,390.390 30.729,390.184 31.127 C 390.102 31.286,389.900 31.754,389.735 32.167 C 389.571 32.579,389.367 33.010,389.281 33.125 C 389.117 33.345,342.998 33.450,342.430 33.232 C 342.116 33.112,342.038 29.051,342.339 28.489 C 342.570 28.057,390.390 27.972,390.555 28.403 M121.919 37.102 C 125.444 40.628,128.404 43.654,128.497 43.828 C 128.789 44.373,128.719 50.491,128.420 50.605 C 128.253 50.669,126.011 48.537,121.503 44.026 L 114.833 37.351 114.833 33.914 C 114.833 30.535,114.839 30.479,115.172 30.585 C 115.359 30.644,118.395 33.577,121.919 37.102 M285.206 37.127 L 291.833 43.755 291.833 47.117 C 291.833 49.411,291.774 50.517,291.647 50.595 C 291.538 50.663,288.705 47.954,284.731 43.981 L 278.000 37.252 278.000 33.987 C 278.000 30.798,278.034 30.500,278.400 30.500 C 278.498 30.500,281.561 33.482,285.206 37.127 M45.231 37.136 C 45.277 37.211,40.312 42.273,34.196 48.386 L 23.078 59.500 19.721 59.500 C 16.383 59.500,16.365 59.498,16.457 59.147 C 16.508 58.952,21.459 53.890,27.459 47.897 L 38.369 37.000 41.758 37.000 C 43.622 37.000,45.185 37.061,45.231 37.136 M52.623 37.190 C 54.472 37.634,55.972 38.207,56.048 38.499 C 56.105 38.715,53.345 41.574,45.768 49.147 L 35.410 59.500 31.971 59.500 C 28.718 59.500,28.536 59.483,28.611 59.194 C 28.655 59.026,33.618 53.964,39.640 47.944 C 51.862 35.728,50.664 36.721,52.623 37.190 M386.333 37.160 C 386.333 37.855,381.522 41.167,380.513 41.167 C 380.329 41.167,379.932 41.277,379.631 41.411 C 378.055 42.114,343.720 42.653,342.489 41.994 C 342.162 41.819,341.972 37.417,342.278 37.111 C 342.460 36.929,386.333 36.978,386.333 37.160 M59.667 41.397 C 59.667 41.512,59.917 41.901,60.223 42.262 C 60.716 42.843,61.667 44.941,61.667 45.449 C 61.667 45.554,58.545 48.759,54.730 52.570 L 47.794 59.500 44.312 59.500 L 40.831 59.500 41.040 59.138 C 41.383 58.546,58.793 41.200,59.118 41.126 C 59.493 41.041,59.667 41.127,59.667 41.397 M285.206 49.461 L 291.833 56.088 291.833 57.530 C 291.833 59.604,291.937 59.500,289.857 59.499 C 287.626 59.498,288.198 59.905,282.603 54.327 L 278.000 49.737 278.000 46.396 C 278.000 43.133,278.034 42.833,278.400 42.833 C 278.498 42.833,281.561 45.816,285.206 49.461 M122.044 49.630 L 128.667 56.260 128.667 57.680 C 128.667 59.504,128.672 59.500,126.511 59.500 L 124.756 59.500 119.795 54.539 L 114.833 49.577 114.833 46.289 C 114.833 43.256,114.856 43.000,115.128 43.000 C 115.293 43.000,118.320 45.901,122.044 49.630 M61.511 51.480 C 61.413 51.662,61.333 51.936,61.333 52.089 C 61.333 53.756,56.962 58.311,55.067 58.618 C 54.750 58.670,54.452 58.776,54.403 58.856 C 54.354 58.935,54.112 58.999,53.865 58.998 C 53.477 58.997,53.964 58.451,57.500 54.925 C 61.222 51.213,62.021 50.527,61.511 51.480 M117.262 57.069 C 118.187 57.993,119.035 58.919,119.145 59.125 L 119.345 59.500 117.289 59.500 C 114.714 59.500,114.833 59.619,114.833 57.044 L 114.833 54.988 115.206 55.188 C 115.411 55.298,116.336 56.144,117.262 57.069 M280.436 57.197 C 282.772 59.580,282.778 59.500,280.263 59.500 C 277.830 59.500,278.000 59.675,278.000 57.181 C 278.000 54.658,277.946 54.658,280.436 57.197 " stroke="none" fill="#f6f6f6" fill-rule="evenodd"></path></g></svg>