<svg id="svg" version="1.1" xmlns="http://www.w3.org/2000/svg" xmlns:xlink="http://www.w3.org/1999/xlink" width="400" height="200" viewBox="0, 0, 400,200"><g id="svgg"><path id="path0" d="M64.854 18.325 C 62.467 18.477,60.153 18.823,58.812 19.229 C 58.313 19.380,57.497 19.561,56.999 19.631 C 56.501 19.701,55.697 19.991,55.213 20.275 C 54.684 20.584,53.824 20.853,53.057 20.948 C 52.293 21.043,51.542 21.278,51.181 21.534 C 50.851 21.770,50.214 22.091,49.767 22.249 C 49.319 22.407,48.612 22.768,48.196 23.051 C 47.780 23.334,47.297 23.565,47.124 23.565 C 46.673 23.565,44.265 25.135,42.497 26.582 C 41.667 27.262,40.398 28.277,39.678 28.837 C 37.440 30.579,36.608 31.405,35.650 32.834 C 35.262 33.412,34.336 34.531,33.593 35.321 C 32.017 36.996,31.340 37.895,30.916 38.872 C 30.748 39.260,30.480 39.804,30.320 40.081 C 30.160 40.358,29.786 41.037,29.489 41.591 C 29.192 42.145,28.797 42.792,28.612 43.029 C 28.166 43.600,26.069 49.373,25.477 51.662 C 25.333 52.216,25.109 54.164,24.979 55.992 C 24.848 57.820,24.658 59.750,24.556 60.282 C 24.317 61.530,24.327 63.131,24.582 64.149 C 24.692 64.592,24.859 66.423,24.951 68.218 C 25.104 71.185,25.170 71.584,25.675 72.617 C 25.981 73.242,26.401 74.531,26.609 75.480 C 26.816 76.429,27.123 77.415,27.291 77.671 C 27.458 77.927,27.727 78.643,27.889 79.261 C 28.050 79.880,28.404 80.650,28.676 80.973 C 28.947 81.296,29.282 81.903,29.419 82.321 C 29.556 82.739,29.881 83.362,30.141 83.705 C 30.401 84.048,30.614 84.430,30.614 84.554 C 30.614 84.678,30.866 85.077,31.173 85.441 C 31.480 85.805,31.878 86.425,32.057 86.819 C 32.237 87.213,33.228 88.422,34.261 89.506 C 35.294 90.590,36.286 91.717,36.465 92.012 C 36.644 92.307,37.146 92.844,37.580 93.207 C 38.014 93.569,39.003 94.449,39.778 95.162 C 40.554 95.875,41.475 96.666,41.824 96.920 C 42.174 97.174,43.013 97.805,43.689 98.323 C 44.365 98.841,45.257 99.374,45.671 99.507 C 46.086 99.640,46.563 99.868,46.731 100.014 C 46.899 100.160,47.397 100.445,47.838 100.647 C 48.280 100.849,49.048 101.252,49.547 101.543 C 50.045 101.835,50.679 102.141,50.954 102.223 C 51.230 102.306,51.773 102.580,52.163 102.832 C 52.567 103.094,53.461 103.379,54.249 103.498 C 55.007 103.612,55.959 103.877,56.364 104.088 C 57.420 104.636,58.720 104.877,62.034 105.141 C 63.640 105.269,65.621 105.501,66.436 105.658 C 67.607 105.882,70.402 105.942,79.740 105.942 C 92.062 105.942,92.044 105.940,92.044 106.784 C 92.044 106.982,90.164 109.047,87.865 111.373 C 85.566 113.700,79.970 119.369,75.428 123.972 C 70.886 128.575,59.602 139.942,50.352 149.233 C 15.272 184.469,17.198 182.493,17.619 182.801 C 18.299 183.299,18.690 183.301,83.988 183.233 C 153.378 183.162,150.440 183.207,154.381 182.153 C 155.378 181.887,156.520 181.670,156.920 181.670 C 157.344 181.671,158.119 181.420,158.780 181.067 C 159.464 180.702,160.213 180.463,160.674 180.463 C 161.093 180.463,161.752 180.280,162.138 180.056 C 162.524 179.832,163.297 179.434,163.855 179.171 C 164.413 178.908,164.987 178.552,165.130 178.380 C 165.272 178.208,165.813 177.910,166.330 177.717 C 166.848 177.525,167.569 177.112,167.932 176.800 C 168.296 176.489,168.707 176.234,168.844 176.234 C 169.208 176.234,171.083 174.822,172.709 173.324 C 173.484 172.609,174.617 171.623,175.227 171.133 C 175.836 170.642,176.606 169.850,176.939 169.373 C 177.271 168.895,178.200 167.834,179.003 167.014 C 179.806 166.194,180.463 165.444,180.463 165.347 C 180.463 165.250,180.740 164.854,181.079 164.469 C 181.418 164.083,182.151 162.879,182.708 161.793 C 183.264 160.707,183.847 159.676,184.003 159.503 C 184.159 159.329,184.457 158.694,184.665 158.093 C 184.874 157.491,185.230 156.682,185.458 156.294 C 185.686 155.906,186.016 155.027,186.192 154.340 C 186.368 153.653,186.690 152.674,186.908 152.165 C 187.127 151.656,187.497 150.088,187.731 148.681 C 187.965 147.274,188.198 146.056,188.248 145.974 C 188.997 144.750,188.825 133.982,188.018 131.621 C 187.866 131.178,187.692 130.244,187.629 129.545 C 187.567 128.845,187.254 127.619,186.933 126.818 C 186.613 126.018,186.197 124.671,186.009 123.826 C 185.804 122.904,185.510 122.146,185.276 121.934 C 185.061 121.740,184.748 121.109,184.580 120.533 C 184.413 119.957,184.089 119.317,183.862 119.111 C 183.455 118.743,183.288 118.460,182.136 116.185 C 181.820 115.561,181.265 114.745,180.904 114.373 C 179.584 113.013,179.299 112.679,179.053 112.202 C 178.790 111.692,177.510 110.080,176.578 109.084 C 176.278 108.764,176.032 108.426,176.032 108.334 C 176.032 108.243,175.754 108.023,175.414 107.848 C 175.073 107.672,174.008 106.796,173.047 105.901 C 172.086 105.006,170.937 104.042,170.493 103.759 C 170.050 103.475,169.538 103.062,169.354 102.840 C 169.045 102.466,168.276 102.024,165.962 100.892 C 165.463 100.648,164.829 100.290,164.552 100.095 C 163.961 99.681,160.378 98.307,159.215 98.049 C 158.771 97.951,157.774 97.610,156.999 97.292 C 155.399 96.636,153.667 96.353,150.067 96.159 C 148.692 96.085,147.267 95.899,146.901 95.746 C 146.360 95.520,143.863 95.468,133.445 95.468 L 120.654 95.468 120.329 94.973 L 120.005 94.478 157.803 56.678 C 192.596 21.883,195.575 18.852,195.276 18.553 C 194.934 18.211,70.057 17.993,64.854 18.325 M219.626 18.614 C 219.240 18.896,219.234 19.992,219.181 100.739 L 219.127 182.578 219.555 182.931 C 220.138 183.410,228.472 183.468,229.116 182.997 C 229.498 182.718,229.509 182.164,229.607 157.529 C 229.688 137.241,229.759 132.295,229.970 132.085 C 230.182 131.872,239.588 131.799,280.121 131.698 C 328.986 131.575,331.249 131.544,336.354 130.936 C 337.868 130.756,340.270 130.158,341.591 129.633 C 342.904 129.111,344.544 128.701,345.335 128.696 C 346.056 128.692,346.909 128.369,348.238 127.595 C 348.515 127.434,349.149 127.117,349.648 126.891 C 350.146 126.665,350.780 126.348,351.057 126.186 C 351.334 126.025,351.969 125.703,352.467 125.471 C 354.112 124.706,355.050 124.172,355.524 123.731 C 355.781 123.491,356.333 123.232,356.750 123.156 C 357.258 123.062,357.645 122.823,357.924 122.431 C 358.153 122.110,358.582 121.721,358.878 121.568 C 359.174 121.414,359.969 120.758,360.646 120.111 C 361.322 119.463,362.402 118.570,363.046 118.127 C 364.622 117.043,368.834 112.861,369.347 111.872 C 369.573 111.435,370.488 110.312,371.381 109.375 C 372.273 108.439,373.140 107.387,373.306 107.037 C 373.472 106.686,373.753 106.280,373.930 106.132 C 374.107 105.985,374.515 105.345,374.836 104.710 C 375.157 104.074,375.506 103.500,375.612 103.435 C 375.718 103.369,375.995 102.806,376.228 102.183 C 376.462 101.560,376.825 100.831,377.036 100.563 C 377.247 100.295,377.528 99.741,377.661 99.333 C 377.794 98.924,378.114 98.337,378.372 98.027 C 378.630 97.717,378.937 97.107,379.055 96.671 C 379.172 96.236,379.537 95.311,379.866 94.616 C 380.239 93.826,380.463 93.029,380.463 92.487 C 380.463 92.010,380.770 90.696,381.146 89.566 C 381.521 88.437,381.889 87.105,381.963 86.606 C 382.037 86.108,382.265 84.748,382.470 83.585 C 383.519 77.621,383.443 73.164,382.147 64.653 C 381.969 63.489,381.764 62.129,381.690 61.630 C 381.616 61.131,381.359 60.451,381.119 60.120 C 380.849 59.746,380.570 58.858,380.387 57.785 C 380.224 56.832,379.851 55.473,379.558 54.764 C 378.786 52.896,375.822 46.913,375.385 46.340 C 375.181 46.072,374.843 45.482,374.636 45.031 C 374.428 44.579,373.819 43.676,373.282 43.025 C 372.745 42.373,372.197 41.648,372.063 41.414 C 371.929 41.179,371.604 40.806,371.341 40.584 C 371.079 40.363,370.649 39.819,370.386 39.376 C 369.714 38.243,362.798 31.261,361.883 30.792 C 361.468 30.579,361.128 30.317,361.128 30.210 C 361.128 30.103,360.743 29.766,360.272 29.461 C 359.801 29.155,358.859 28.474,358.179 27.946 C 357.499 27.418,356.565 26.854,356.105 26.691 C 355.260 26.393,353.922 25.539,352.722 24.532 C 352.363 24.231,351.685 23.881,351.214 23.754 C 350.744 23.628,349.950 23.319,349.449 23.068 C 348.949 22.818,348.177 22.549,347.734 22.470 C 347.291 22.392,346.473 22.073,345.916 21.761 C 345.359 21.450,344.378 21.086,343.737 20.953 C 343.095 20.820,341.943 20.492,341.178 20.224 C 340.412 19.957,339.395 19.738,338.916 19.738 C 337.937 19.738,335.095 19.139,333.761 18.651 C 332.496 18.188,220.258 18.152,219.626 18.614 M96.434 29.458 C 96.743 30.102,100.692 26.037,65.564 61.238 C 41.248 85.606,42.974 84.106,41.870 81.839 C 41.645 81.377,41.336 80.951,41.184 80.892 C 41.032 80.834,40.761 80.502,40.581 80.156 C 40.402 79.809,39.967 79.130,39.614 78.646 C 38.411 76.995,38.048 76.278,37.742 74.947 C 37.573 74.214,37.210 73.150,36.933 72.581 C 36.657 72.013,36.379 71.045,36.316 70.432 L 36.201 69.316 50.276 55.202 C 58.017 47.439,66.977 38.437,70.187 35.197 C 73.488 31.865,76.288 29.202,76.632 29.068 C 77.074 28.895,79.839 28.840,86.704 28.866 L 96.168 28.902 96.434 29.458 M132.722 29.191 C 132.837 29.405,132.931 29.705,132.931 29.857 C 132.931 30.009,118.352 44.743,100.534 62.600 L 68.137 95.065 66.843 95.065 C 65.043 95.065,62.401 94.711,61.551 94.356 C 61.159 94.192,60.496 94.057,60.077 94.056 C 59.119 94.053,57.769 93.641,56.596 92.993 C 56.098 92.717,55.338 92.380,54.907 92.244 C 53.908 91.926,51.762 90.573,51.762 90.260 C 51.762 89.876,112.444 29.292,113.051 29.069 C 114.321 28.603,132.468 28.716,132.722 29.191 M168.943 29.043 C 169.681 29.781,169.567 29.906,154.953 44.411 C 147.140 52.165,132.531 66.705,122.488 76.722 C 105.926 93.241,104.155 94.948,103.424 95.092 C 101.363 95.495,84.617 95.292,84.183 94.858 L 83.774 94.448 95.714 82.487 C 102.281 75.908,116.898 61.256,128.197 49.927 C 143.068 35.018,148.936 29.259,149.446 29.075 C 150.436 28.716,168.586 28.687,168.943 29.043 M329.305 29.210 C 334.777 29.577,336.177 29.764,337.521 30.311 C 338.218 30.594,339.215 30.882,339.736 30.951 C 340.258 31.020,341.093 31.284,341.591 31.537 C 342.090 31.790,343.022 32.059,343.663 32.135 C 344.373 32.220,345.106 32.462,345.538 32.755 C 345.928 33.020,346.598 33.416,347.028 33.635 C 347.457 33.854,348.054 34.261,348.355 34.539 C 348.655 34.818,348.987 35.045,349.093 35.045 C 349.198 35.045,349.797 35.358,350.423 35.740 C 351.049 36.122,351.821 36.497,352.139 36.573 C 352.488 36.657,353.727 37.671,355.261 39.130 C 356.660 40.460,358.145 41.762,358.560 42.025 C 359.396 42.554,359.558 43.233,358.985 43.806 C 358.681 44.110,353.813 44.126,295.189 44.013 C 228.541 43.884,230.129 43.901,229.809 43.304 C 229.532 42.785,229.538 29.912,229.816 29.393 C 230.059 28.938,322.713 28.768,329.305 29.210 M58.631 30.993 L 59.099 31.373 48.915 41.541 C 36.734 53.703,37.159 53.304,36.741 52.957 C 36.325 52.612,36.517 51.509,37.159 50.554 C 37.419 50.166,37.737 49.451,37.865 48.965 C 38.132 47.947,39.510 45.279,40.090 44.656 C 40.306 44.424,40.483 44.169,40.483 44.090 C 40.483 44.010,40.795 43.572,41.176 43.116 C 41.557 42.660,41.932 42.085,42.008 41.838 C 42.085 41.592,42.475 41.016,42.876 40.559 C 43.277 40.102,43.877 39.345,44.209 38.878 C 44.542 38.410,45.145 37.857,45.550 37.649 C 45.956 37.442,46.318 37.192,46.356 37.095 C 46.394 36.998,46.750 36.701,47.146 36.435 C 47.543 36.169,48.370 35.616,48.984 35.206 C 49.598 34.797,50.156 34.317,50.224 34.140 C 50.291 33.963,50.643 33.695,51.004 33.544 C 51.366 33.393,51.888 33.093,52.165 32.878 C 52.442 32.663,53.161 32.324,53.763 32.126 C 54.364 31.928,55.147 31.595,55.502 31.385 C 56.031 31.073,56.782 30.851,58.034 30.636 C 58.105 30.624,58.374 30.785,58.631 30.993 M367.596 54.834 C 368.282 55.406,368.942 56.563,369.159 57.571 C 369.285 58.162,369.608 59.022,369.876 59.483 C 370.144 59.945,370.510 60.911,370.690 61.631 C 370.871 62.351,371.197 63.394,371.416 63.948 C 372.101 65.684,372.247 69.248,371.648 69.641 C 371.008 70.060,230.417 69.908,229.910 69.487 C 229.413 69.074,229.460 55.091,229.960 54.800 C 230.523 54.472,367.203 54.506,367.596 54.834 M371.688 80.478 C 372.003 80.794,372.074 81.247,372.012 82.578 C 371.956 83.803,370.383 89.844,369.868 90.813 C 369.596 91.324,369.191 92.259,368.966 92.891 C 368.742 93.522,368.300 94.315,367.985 94.653 L 367.411 95.267 298.718 95.267 C 231.009 95.267,230.021 95.261,229.816 94.877 C 229.494 94.276,229.534 81.345,229.859 80.901 C 229.998 80.711,230.383 80.475,230.715 80.376 C 231.928 80.014,371.325 80.115,371.688 80.478 M359.230 106.562 C 359.655 107.033,360.054 106.581,355.907 110.330 C 355.085 111.074,354.141 111.974,353.810 112.332 C 353.478 112.689,352.882 113.087,352.485 113.216 C 352.087 113.346,351.490 113.688,351.157 113.976 C 350.824 114.265,349.601 114.987,348.438 115.580 C 347.276 116.172,346.007 116.826,345.619 117.031 C 343.958 117.911,342.233 118.604,341.390 118.731 C 340.891 118.806,339.940 119.126,339.275 119.441 C 338.211 119.946,337.620 120.055,334.340 120.351 C 332.291 120.536,329.935 120.781,329.104 120.896 C 327.453 121.124,232.802 121.362,231.254 121.142 C 229.556 120.901,229.607 121.136,229.607 113.582 C 229.607 109.376,229.684 106.779,229.816 106.533 C 230.021 106.149,230.960 106.143,294.437 106.143 L 358.850 106.143 359.230 106.562 M128.523 106.668 C 129.034 107.130,64.362 171.927,63.099 172.220 C 62.077 172.458,44.874 172.458,44.250 172.221 C 43.100 171.784,42.923 171.977,61.081 153.763 C 70.744 144.069,85.312 129.437,93.454 121.247 L 108.258 106.356 118.212 106.350 C 127.077 106.345,128.205 106.380,128.523 106.668 M147.579 106.557 C 148.994 106.673,150.514 106.893,150.957 107.045 C 151.400 107.197,152.578 107.473,153.575 107.659 C 154.572 107.844,155.796 108.200,156.294 108.450 C 156.793 108.701,157.659 109.014,158.219 109.146 C 159.202 109.379,160.926 110.642,160.926 111.129 C 160.926 111.753,100.120 172.150,99.366 172.274 C 98.078 172.487,81.249 172.428,80.673 172.208 C 79.729 171.850,79.817 171.453,81.140 170.119 C 81.820 169.433,82.377 168.804,82.377 168.723 C 82.377 168.504,144.603 106.344,144.822 106.344 C 144.924 106.344,146.165 106.440,147.579 106.557 M171.153 119.217 C 171.405 119.546,171.738 120.116,171.892 120.485 C 172.046 120.854,172.370 121.335,172.612 121.554 C 172.854 121.774,173.190 122.225,173.357 122.557 C 173.525 122.890,173.825 123.343,174.024 123.565 C 174.222 123.787,174.491 124.376,174.620 124.874 C 174.749 125.373,175.081 126.112,175.357 126.517 C 175.633 126.921,175.997 127.780,176.165 128.424 C 176.333 129.069,176.607 129.859,176.773 130.181 C 177.048 130.712,177.042 130.831,176.705 131.490 C 176.002 132.867,136.697 172.014,135.812 172.219 C 135.390 172.317,130.905 172.399,125.845 172.402 C 116.233 172.407,116.012 172.388,116.012 171.564 C 116.012 171.448,128.125 159.247,142.929 144.451 L 169.846 117.549 170.271 118.085 C 170.504 118.379,170.901 118.889,171.153 119.217 M176.956 147.985 C 176.736 148.205,176.585 147.855,176.743 147.491 C 176.893 147.146,176.904 147.146,176.988 147.498 C 177.036 147.701,177.022 147.920,176.956 147.985 M176.537 148.239 C 176.765 148.609,175.997 151.735,175.405 152.844 C 175.085 153.443,174.824 154.106,174.824 154.317 C 174.824 154.528,174.592 154.933,174.308 155.216 C 174.025 155.500,173.571 156.198,173.301 156.768 C 172.771 157.882,172.113 158.846,171.241 159.784 C 170.941 160.107,170.454 160.631,170.159 160.949 C 169.864 161.266,169.425 161.845,169.184 162.236 C 168.943 162.627,168.345 163.222,167.855 163.558 C 167.366 163.895,166.753 164.370,166.494 164.613 C 163.431 167.486,158.933 170.164,156.093 170.806 C 155.483 170.944,154.669 171.224,154.283 171.429 C 152.860 172.186,152.067 171.652,153.125 170.651 C 153.483 170.312,158.671 165.091,164.653 159.048 C 175.266 148.326,176.114 147.555,176.537 148.239 " stroke="none" fill="#f6f6f6" fill-rule="evenodd"></path></g></svg>