<?xml version="1.0" encoding="iso-8859-1"?>
<!-- Generator: Adobe Illustrator 19.0.0, SVG Export Plug-In . SVG Version: 6.00 Build 0)  -->
<svg version="1.1" id="Layer_1" xmlns="http://www.w3.org/2000/svg" xmlns:xlink="http://www.w3.org/1999/xlink" x="0px" y="0px"
	 viewBox="0 0 512 512" style="enable-background:new 0 0 512 512;" xml:space="preserve">
<g>
	<g>
		<path d="M256,0C114.837,0,0,114.837,0,256s114.837,256,256,256s256-114.837,256-256S397.163,0,256,0z M192,106.667h128
			c11.797,0,21.333,9.557,21.333,21.333s-9.536,21.333-21.333,21.333H192c-11.797,0-21.333-9.557-21.333-21.333
			S180.203,106.667,192,106.667z M320,405.333H192c-11.797,0-21.333-9.557-21.333-21.333s9.536-21.333,21.333-21.333h128
			c11.797,0,21.333,9.557,21.333,21.333S331.797,405.333,320,405.333z M384,320H128c-11.797,0-21.333-9.557-21.333-21.333
			s9.536-21.333,21.333-21.333h256c11.797,0,21.333,9.557,21.333,21.333S395.797,320,384,320z M384,234.667H128
			c-11.797,0-21.333-9.557-21.333-21.333S116.203,192,128,192h256c11.797,0,21.333,9.557,21.333,21.333S395.797,234.667,384,234.667
			z"/>
	</g>
</g>
<g>
</g>
<g>
</g>
<g>
</g>
<g>
</g>
<g>
</g>
<g>
</g>
<g>
</g>
<g>
</g>
<g>
</g>
<g>
</g>
<g>
</g>
<g>
</g>
<g>
</g>
<g>
</g>
<g>
</g>
</svg>
