<?xml version="1.0" encoding="UTF-8"?> <svg xmlns="http://www.w3.org/2000/svg" id="Layer_1" data-name="Layer 1" width="512" height="512" viewBox="0 0 512 512"><defs><style>.cls-1{fill:#6f4f38;}.cls-2{fill:#387d44;}</style></defs><path class="cls-1" d="M353.3,114.7393A159.7392,159.7392,0,0,1,505.2728,225.1538,128.5134,128.5134,0,0,1,487.28,342.1376a135.4774,135.4774,0,0,1-46.3322,40.0547,130.3991,130.3991,0,0,1-60.3973,15.0683c-23.23,0-45.5986-6.2244-66.4835-18.5l-10.1876-5.988a94.4867,94.4867,0,0,0-95.76,0l-10.1876,5.9882c-20.8851,12.2759-43.2533,18.5-66.4835,18.5a130.3857,130.3857,0,0,1-60.395-15.07,135.4879,135.4879,0,0,1-46.3315-40.0563A128.51,128.51,0,0,1,6.7261,225.1541,159.7407,159.7407,0,0,1,158.6986,114.7394Z"></path><path class="cls-2" d="M313.1714,356.9637l10.1876,5.9882c89.5049,52.61,196.557-33.3913,164.4743-132.1313V230.82a141.4563,141.4563,0,0,0-134.5328-97.7436H158.6986A141.4562,141.4562,0,0,0,24.1657,230.82v0C-7.917,329.561,99.1351,415.5616,188.64,362.9519l10.1878-5.9882A112.8242,112.8242,0,0,1,313.1714,356.9637Z"></path></svg> 